<svg 
 xmlns="http://www.w3.org/2000/svg"
 xmlns:xlink="http://www.w3.org/1999/xlink"
 width="9px" height="14px">
<path fill-rule="evenodd"  fill="rgb(255, 255, 255)"
 d="M8.216,6.405 L2.187,0.353 C2.048,0.212 1.862,0.135 1.663,0.135 C1.465,0.135 1.278,0.212 1.139,0.353 L0.695,0.798 C0.406,1.088 0.406,1.560 0.695,1.851 L5.757,6.933 L0.689,12.021 C0.550,12.161 0.473,12.347 0.473,12.547 C0.473,12.746 0.550,12.933 0.689,13.074 L1.133,13.519 C1.273,13.660 1.459,13.736 1.658,13.736 C1.856,13.736 2.042,13.660 2.181,13.519 L8.216,7.461 C8.355,7.321 8.432,7.133 8.432,6.933 C8.432,6.734 8.355,6.545 8.216,6.405 Z"/>
</svg>